<svg
                    width="24"
                    height="24"
                    viewBox="0 0 43 19"
                    fill="none"
                    xmlns="http://www.w3.org/2000/svg"
                  >
                    <path
                      d="M10.3711 13.5234C10.3711 12.8594 10.1367 12.3516 9.66797 12C9.19922 11.6406 8.35547 11.2656 7.13672 10.875C5.91797 10.4766 4.95312 10.0859 4.24219 9.70312C2.30469 8.65625 1.33594 7.24609 1.33594 5.47266C1.33594 4.55078 1.59375 3.73047 2.10938 3.01172C2.63281 2.28516 3.37891 1.71875 4.34766 1.3125C5.32422 0.90625 6.41797 0.703125 7.62891 0.703125C8.84766 0.703125 9.93359 0.925781 10.8867 1.37109C11.8398 1.80859 12.5781 2.42969 13.1016 3.23438C13.6328 4.03906 13.8984 4.95312 13.8984 5.97656H10.3828C10.3828 5.19531 10.1367 4.58984 9.64453 4.16016C9.15234 3.72266 8.46094 3.50391 7.57031 3.50391C6.71094 3.50391 6.04297 3.6875 5.56641 4.05469C5.08984 4.41406 4.85156 4.89062 4.85156 5.48438C4.85156 6.03906 5.12891 6.50391 5.68359 6.87891C6.24609 7.25391 7.07031 7.60547 8.15625 7.93359C10.1562 8.53516 11.6133 9.28125 12.5273 10.1719C13.4414 11.0625 13.8984 12.1719 13.8984 13.5C13.8984 14.9766 13.3398 16.1367 12.2227 16.9805C11.1055 17.8164 9.60156 18.2344 7.71094 18.2344C6.39844 18.2344 5.20312 17.9961 4.125 17.5195C3.04688 17.0352 2.22266 16.375 1.65234 15.5391C1.08984 14.7031 0.808594 13.7344 0.808594 12.6328H4.33594C4.33594 14.5156 5.46094 15.457 7.71094 15.457C8.54688 15.457 9.19922 15.2891 9.66797 14.9531C10.1367 14.6094 10.3711 14.1328 10.3711 13.5234ZM19.8047 11.9883V18H16.2891V0.9375H22.9453C24.2266 0.9375 25.3516 1.17188 26.3203 1.64062C27.2969 2.10938 28.0469 2.77734 28.5703 3.64453C29.0938 4.50391 29.3555 5.48438 29.3555 6.58594C29.3555 8.25781 28.7812 9.57812 27.6328 10.5469C26.4922 11.5078 24.9102 11.9883 22.8867 11.9883H19.8047ZM19.8047 9.14062H22.9453C23.875 9.14062 24.582 8.92188 25.0664 8.48438C25.5586 8.04688 25.8047 7.42188 25.8047 6.60938C25.8047 5.77344 25.5586 5.09766 25.0664 4.58203C24.5742 4.06641 23.8945 3.80078 23.0273 3.78516H19.8047V9.14062ZM42.0469 11.0273H35.2969V18H31.7812V0.9375H42.8906V3.78516H35.2969V8.19141H42.0469V11.0273Z"
                      fill="white"
                    />
                  </svg>